<svg xmlns="http://www.w3.org/2000/svg" width="170" height="47" viewBox="0 0 170 40" fill="none" data-v-c0d4ed91="">
    <rect width="170" height="47" fill="#ffffff" />
    <g transform="translate(5, 5)">
        <path fill-rule="evenodd" clip-rule="evenodd"
            d="M1 25.305L2.17278 25.3059L20.2143 7.26444L20.213 6.09197L24.908 10.787L23.7353 10.7857L5.69392 28.8271L5.69499 30L1 25.305ZM17.2209 5.02285L14.2901 7.95366L12.1732 5.8368L7.61418 10.3958L9.73104 12.5127L6.80023 15.4435L2.77739 11.4204V9.37021L11.1477 1H13.1983L17.2209 5.02285ZM25.9771 13.7791L23.0463 16.7099L25.1632 18.8268L20.6042 23.3858L18.4873 21.269L15.5565 24.1998L19.5796 28.2226H21.6298L30 19.8523V17.8016L25.9771 13.7791Z"
            fill="#19D8AA" data-v-c0d4ed91=""></path>
        <path fill-rule="evenodd" clip-rule="evenodd" d="M33.6094 8.00562H51.0988V11.5035H33.6094V8.00562Z" fill="black"
            data-v-c0d4ed91=""></path>
        <path d="M133.948 12.1594H124.766V15.6573H133.948V12.1594Z" fill="black" data-v-c0d4ed91=""></path>
        <path d="M44.5364 11.2849H40.1641V25.4951H44.5364V11.2849Z" fill="black" data-v-c0d4ed91=""></path>
        <path d="M56.3414 8.00562H52.4062V25.4951H56.3414V8.00562Z" fill="black" data-v-c0d4ed91=""></path>
        <path d="M87.1696 12.1594H83.4531V25.4951H87.1696V12.1594Z" fill="black" data-v-c0d4ed91=""></path>
        <path d="M107.935 8.00562H104V25.4951H107.935V8.00562Z" fill="black" data-v-c0d4ed91=""></path>
        <path
            d="M130.24 8.00562V21.5599C130.24 21.6807 130.338 21.7786 130.458 21.7786H133.956V25.7137H130.458C128.164 25.7137 126.305 23.854 126.305 21.5599V8.00562H130.24Z"
            fill="black" data-v-c0d4ed91=""></path>
        <path
            d="M60.0592 12.05C63.0173 12.05 65.4153 14.4481 65.4153 17.4062V25.4951H61.6988V17.4062C61.6988 16.5006 60.9647 15.7666 60.0592 15.7666H54.5938V12.05H60.0592Z"
            fill="black" data-v-c0d4ed91=""></path>
        <path
            d="M77.002 12.05C79.5375 12.05 81.593 14.1055 81.593 16.641V21.0134C81.593 23.5489 79.5375 25.6044 77.002 25.6044H71.9738C69.4383 25.6044 67.3828 23.5489 67.3828 21.0134V16.641C67.3828 14.1055 69.4383 12.05 71.9738 12.05H77.002ZM77.002 15.5479H71.9738C71.3701 15.5479 70.8807 16.0373 70.8807 16.641V21.0134C70.8807 21.6171 71.3701 22.1065 71.9738 22.1065H77.002C77.6057 22.1065 78.0951 21.6171 78.0951 21.0134V16.641C78.0951 16.0373 77.6057 15.5479 77.002 15.5479Z"
            fill="black" data-v-c0d4ed91=""></path>
        <path
            d="M93.8375 12.05V15.5479H90.9955C88.8222 15.5479 87.0604 17.3098 87.0604 19.4831V25.6044H83.5625V19.4831C83.5625 15.3779 86.8904 12.05 90.9955 12.05H93.8375Z"
            fill="black" data-v-c0d4ed91=""></path>
        <path
            d="M104.44 12.1594V15.6573H99.4886C98.9518 15.6573 98.537 16.0604 98.537 16.5318V21.1228C98.537 21.5942 98.9518 21.9972 99.4886 21.9972H104.44V25.4951H99.4886C97.0423 25.4951 95.0391 23.5491 95.0391 21.1228V16.5318C95.0391 14.1055 97.0423 12.1594 99.4886 12.1594H104.44Z"
            fill="black" data-v-c0d4ed91=""></path>
        <path
            d="M119.744 12.1594C121.676 12.1594 123.242 13.7255 123.242 15.6573V25.4951H119.744V15.6573H113.842C113.721 15.6573 113.623 15.7552 113.623 15.8759H110.125C110.125 13.8234 111.789 12.1594 113.842 12.1594H119.744Z"
            fill="black" data-v-c0d4ed91=""></path>
        <path
            d="M145.322 12.1594C147.254 12.1594 148.82 13.7255 148.82 15.6573V25.4951H145.322V15.6573H139.42C139.299 15.6573 139.201 15.7552 139.201 15.8759H135.703C135.703 13.8234 137.367 12.1594 139.42 12.1594H145.322Z"
            fill="black" data-v-c0d4ed91=""></path>
        <path
            d="M120.181 16.9688C121.872 16.9688 123.242 18.3391 123.242 20.0294V21.2318C123.242 23.5862 121.333 25.4949 118.979 25.4949H113.186C111.495 25.4949 110.125 24.1246 110.125 22.4342V20.0294C110.125 18.3391 111.495 16.9688 113.186 16.9688H120.181ZM119.744 20.4666H113.623V21.997H118.979C119.388 21.997 119.721 21.6768 119.743 21.2738L119.744 21.2318V20.4666Z"
            fill="black" data-v-c0d4ed91=""></path>
        <path
            d="M145.76 16.9688C147.45 16.9688 148.82 18.3391 148.82 20.0294V21.2318C148.82 23.5862 146.912 25.4949 144.557 25.4949H138.764C137.073 25.4949 135.703 24.1246 135.703 22.4342V20.0294C135.703 18.3391 137.073 16.9688 138.764 16.9688H145.76ZM145.322 20.4666H139.201V21.997H144.557C144.966 21.997 145.299 21.6768 145.321 21.2738L145.322 21.2318V20.4666Z"
            fill="black" data-v-c0d4ed91=""></path>
    </g>
</svg>